<?xml version="1.0" encoding="UTF-8" standalone="no"?>
<!-- Uploaded to: SVG Repo, www.svgrepo.com, Generator: SVG Repo Mixer Tools -->

<svg
   width="755.8974"
   height="745.59698"
   viewBox="0 0 120.94358 119.29552"
   aria-hidden="true"
   role="img"
   class="iconify iconify--noto"
   preserveAspectRatio="xMidYMid"
   version="1.1"
   id="svg54"
   sodipodi:docname="africa.svg"
   inkscape:version="1.2.2 (b0a8486541, 2022-12-01)"
   xmlns:inkscape="http://www.inkscape.org/namespaces/inkscape"
   xmlns:sodipodi="http://sodipodi.sourceforge.net/DTD/sodipodi-0.dtd"
   xmlns="http://www.w3.org/2000/svg"
   xmlns:svg="http://www.w3.org/2000/svg">
  <defs
     id="defs58" />
  <sodipodi:namedview
     id="namedview56"
     pagecolor="#ffffff"
     bordercolor="#000000"
     borderopacity="0.25"
     inkscape:showpageshadow="2"
     inkscape:pageopacity="0.0"
     inkscape:pagecheckerboard="0"
     inkscape:deskcolor="#d1d1d1"
     showgrid="false"
     inkscape:zoom="0.69625"
     inkscape:cx="400"
     inkscape:cy="400.71813"
     inkscape:window-width="1366"
     inkscape:window-height="739"
     inkscape:window-x="0"
     inkscape:window-y="1"
     inkscape:window-maximized="1"
     inkscape:current-layer="svg54" />
  <radialGradient
     id="IconifyId17ecdb2904d178eab8950"
     cx="43.972"
     cy="29.066"
     r="90.950996"
     gradientTransform="matrix(0.6257,0.78,-0.5815,0.4665,33.359,-18.792)"
     gradientUnits="userSpaceOnUse">
    <stop
       offset=".506"
       stop-color="#17a1f3"
       id="stop2" />
    <stop
       offset=".767"
       stop-color="#1b7ffa"
       id="stop4" />
    <stop
       offset=".962"
       stop-color="#1366f0"
       id="stop6" />
    <stop
       offset="1"
       stop-color="#1160ee"
       id="stop8" />
  </radialGradient>
  <path
     d="m 0.02013172,60.191244 c 0.68,24.4 16.99000028,59.549996 61.45000028,59.099996 43.319998,-0.44 60.759998,-36.299996 59.399998,-62.059996 -1.37,-25.76 -21.659998,-57.4599997 -61.789998,-57.2299997 -40.14,0.22 -59.80000028,33.9599997 -59.06000028,60.1899997 z"
     fill="url(#IconifyId17ecdb2904d178eab8950)"
     id="path11"
     style="fill:#ffffff" />
  <path
     d="m 87.400132,89.191244 c -0.63,-0.24 -1.1,0.35 -1.75,1.45 -0.65,1.1 -1.35,2 -1.8,2.35 -0.45,0.35 -3.1,1.95 -3.3,2.85 -0.2,0.9 0,1.8 0,2.65 0,0.85 -0.15,2.099996 -0.15,2.649996 0,0.55 -0.6,1.05 0.2,1.85 0.8,0.8 1.4,0.3 1.95,-0.45 0.55,-0.75 1.85,-3.149996 2.15,-4.199996 0.2,-0.71 0.6,-1.75 0.8,-2.3 0.2,-0.55 1.85,-3.2 2.1,-4.2 0.26,-1 0.61,-2.35 -0.2,-2.65 z"
     fill="#7add8a"
     id="path13"
     style="fill:#0000ff" />
  <path
     d="m 63.260132,35.631244 c 0,0.36 0.26,0.73 0.93,0.73 0.67,0 0.95,-0.42 0.9,-0.97 -0.04,-0.51 -0.56,-0.67 -1.01,-0.63 -0.36,0.03 -0.82,0.3 -0.82,0.87 z"
     fill="#bedc9d"
     id="path15" />
  <path
     d="m 41.420132,27.871244 c -0.46,-0.02 -1.2,0.41 -1.25,0.82 -0.11,0.98 -0.42,2.84 0.32,2.95 0.68,0.1 1.03,-1.09 1.14,-1.54 0.11,-0.45 0.5,-2.2 -0.21,-2.23 z"
     fill="#95da93"
     id="path17"
     style="fill:#0000ff" />
  <path
     d="m 37.940132,12.481244 c -0.89,0 -1.48,0.76 -1.62,1.22 -0.15,0.5 -0.05,1.87 -0.47,2.05 -0.57,0.24 -1.48,0.06 -2.08,0.25 -0.78,0.25 -2.4,1.73 -2.36,2.08 0.03,0.32 0.42,1.02 1.31,1.16 0.3,0.05 0.61,-0.05 0.69,-0.24 0.04,-0.1 0.25,-0.25 0.42,-0.19 0.24,0.08 0.21,0.56 0.4,0.61 0.19,0.05 2.2,0.08 2.44,0 0.24,-0.08 1.49,-0.82 1.67,-1.59 0.19,-0.77 0.26,-2.41 0.33,-3.75 0.07,-1.15 -0.36,-1.6 -0.73,-1.6 z"
     fill="#7add8a"
     id="path19"
     style="fill:#0000ff" />
  <path
     d="m 35.160132,4.7112443 c 0,0 -1.54,1.91 -2.5,2.81 -0.96,0.9 -2.63,2.2 -2.47,2.8399997 0.05,0.21 0.61,0.74 1.33,0.56 0.72,-0.19 2.02,-1.0099997 3.5,-1.5399997 1.49,-0.53 2.49,-0.58 2.79,-0.72 0.29,-0.13 3.56,-1.75 4.83,-2.31 1.27,-0.56 6.13,-1.96 7.27,-2.36 1.14,-0.4 1.99,-0.77 1.8,-1.51 -0.19,-0.74 -2.44,-0.64 -3.79,-0.64 -1.35,0 -2.56,-0.4 -2.56,-0.4 0,0 -3.29,0.76 -5.69,1.57 -2.38,0.81 -4.51,1.7 -4.51,1.7 z"
     fill="#ffffff"
     id="path21" />
  <path
     d="m 66.100132,3.5312443 c -0.38,-0.41 -0.11,-0.91 0.53,-1.23 0.63,-0.32 2.19,-1.39 2.19,-1.39 0,0 12.49,-0.18 27.03,10.1499997 14.029998,9.97 18.659998,22.65 18.659998,22.65 0,0 0.41,1.6 0.12,2.13 -0.29,0.54 0.04,3.32 -0.78,7.96 -0.82,4.64 -1.18,6.06 -1.13,8.16 0.05,2.1 0.79,6.14 -0.79,6.45 -1.58,0.31 -1.99,-2.15 -2.83,-3.99 -0.84,-1.84 -2.31,-4.14 -2.68,-4.93 -0.37,-0.79 -0.63,-1.84 -0.63,-1.84 0,0 -0.94,0.26 -1.68,-0.21 -0.73,-0.47 -4.459998,-4.77 -4.929998,-5.14 -0.47,-0.37 -1.68,-0.16 -2.68,0.16 -1,0.32 -1.36,0.94 -3.62,0.73 -2.26,-0.21 -1.42,-1.05 -2.62,-1.89 -1.2,-0.84 -2.26,1.1 -3.41,1.1 -1.15,0 -1.89,-0.58 -2.68,-1.36 -0.79,-0.78 -1.73,-1.68 -2.2,-1.84 -0.47,-0.16 -1.63,0.16 -1.15,1.31 0.48,1.15 1.36,1.26 2.15,2.05 0.79,0.79 0.68,1.26 1.1,1.89 0.42,0.63 2.52,2.05 2.99,1.94 0.47,-0.1 1.36,-0.63 1.73,-1.21 0.37,-0.58 0.26,-1.21 0.94,-1.31 0.68,-0.1 1.26,0.89 2.2,1.63 0.94,0.74 1.99,0.73 2.26,2.05 0.26,1.31 -0.79,5.35 -1.73,6.4 -0.94,1.05 -1.89,1.15 -1.89,1.15 l -2.1,1.78 c 0,0 0,0.94 -1.73,1.94 -1.73,1 -2.15,0.94 -3.31,1.52 -1.16,0.58 -1.78,1.26 -2.68,1.05 -0.9,-0.21 -1.52,-1.57 -1.94,-2.94 -0.42,-1.36 -1.36,-2.52 -2.05,-3.2 -0.69,-0.68 -1.21,-0.73 -1.89,-1.57 -0.68,-0.84 -2.1,-2.68 -2.2,-3.04 -0.1,-0.36 -0.1,-0.84 -0.47,-1.36 -0.37,-0.52 -1.1,-0.89 -1.52,-1.21 -0.42,-0.31 -0.73,-0.73 -0.84,-1.42 -0.11,-0.69 -1.15,-1.52 -1.68,-2.15 -0.53,-0.63 -1.15,-1.78 -1.73,-1.36 -0.58,0.42 0.1,1.31 0.79,2.47 0.69,1.16 1,1.94 1.15,2.73 0.16,0.79 -0.05,1.31 0.52,1.68 0.57,0.37 1.21,-0.05 1.89,1.57 0.68,1.62 0.42,3.15 1.15,3.78 0.73,0.63 0.89,0.26 1.52,1.05 0.63,0.79 0.52,1.94 1.26,2.47 0.74,0.53 2.94,1.47 3.78,2.78 0.84,1.31 0.42,1.89 1.21,2.36 0.79,0.47 2.31,0.05 3.88,-0.47 1.57,-0.52 3.73,-2.2 4.62,-1.94 0.89,0.26 0.68,3.57 -0.21,6.09 -0.89,2.52 -1.57,3.31 -2.2,4.09 -0.63,0.78 -1.52,2.41 -3.36,3.99 -1.84,1.58 -4.3,4.04 -4.93,7.24 -0.63,3.2 0.1,8.55 0,9.92 -0.1,1.37 0.05,2.2 -0.68,2.94 -0.73,0.74 -3.73,3.36 -4.25,4.299996 -0.52,0.94 -0.16,2.1 -0.52,3.41 -0.36,1.31 -2.68,3.41 -3.46,3.83 -0.78,0.42 -0.58,1.21 -2.41,2.78 -1.83,1.57 -2.41,2.1 -3.2,2.2 -0.79,0.1 -5.09,0.31 -6.72,-0.31 -1.63,-0.63 -2.73,-1.63 -3.2,-2.15 -0.47,-0.52 -0.94,-1.1 -1.68,-1.52 -0.73,-0.42 -1.57,-1.31 -2.15,-2.1 -0.58,-0.79 -2.15,-2.89 -3.67,-4.56 -1.52,-1.67 -2.31,-2.469996 -2.41,-4.299996 -0.1,-1.83 1.57,-3.73 1.57,-3.73 0,0 -0.47,-3.25 -1.84,-5.67 -1.37,-2.42 -3.2,-2.83 -4.3,-5.3 -1.1,-2.47 -0.58,-4.41 -0.47,-5.19 0.11,-0.78 -0.21,-2.1 -1.42,-2.52 -1.21,-0.42 -2.15,0.1 -2.83,-0.26 -0.68,-0.36 -1.57,-2.26 -3.1,-2.36 -1.53,-0.1 -3.46,1.99 -5.14,1.94 -1.68,-0.05 -1.73,-1.21 -2.94,-1.57 -1.21,-0.36 -1.63,0.89 -2.62,0.68 -1,-0.21 -2.41,-1.63 -3.2,-2.89 -0.79,-1.26 -1.73,-1.99 -2.2,-2.73 -0.47,-0.74 -0.63,-1.26 -0.63,-1.26 0,0 -1.68,-0.05 -2.15,-2.68 -0.47,-2.63 -0.1,-3.88 0.31,-5.25 0.42,-1.36 1.57,-5.04 1.68,-6.3 0.11,-1.26 -0.16,-2.15 0.1,-2.83 0.26,-0.68 1.57,-1.73 2.15,-2.73 0.58,-1 1.1,-2.05 1.63,-2.78 0.53,-0.73 1.47,-0.1 2.73,-1.73 1.26,-1.63 1.05,-1.89 1.05,-1.89 0,0 0.31,-1.73 1.26,-2.89 0.95,-1.16 1.94,-1.73 2.62,-1.84 0.68,-0.11 1.63,0.21 2.31,0.21 0.68,0 1.52,0.16 2.1,0.05 0.58,-0.11 2.31,-1.47 3.57,-1.78 1.26,-0.31 2.36,-0.16 3.36,-0.37 1,-0.21 2.73,-0.42 3.83,0.37 1.1,0.79 1.1,1.36 1,1.73 -0.1,0.37 -0.79,1.26 -0.52,1.63 0.27,0.37 1.1,0.68 1.57,0.84 0.47,0.16 1.21,0.21 1.47,0.37 0.26,0.16 0.89,0.89 1.94,1.42 1.05,0.53 2.73,1.42 3.31,1.1 0.58,-0.32 0.52,-1.73 1.52,-2.05 1,-0.31 2.41,0.05 3.94,0.31 1.53,0.26 7.82,1.73 8.5,1.52 0.68,-0.21 0.47,-0.79 1.26,-1 0.79,-0.21 1.57,-0.16 1.89,-0.73 0.32,-0.57 0.52,-3.36 0.47,-4.3 -0.05,-0.94 -0.05,-2.1 -0.47,-2.31 -0.42,-0.21 -1.57,1.05 -2.62,1.26 -1.05,0.21 -1.42,-0.16 -1.89,-0.1 -0.47,0.06 -0.89,0.79 -1.52,0.58 -0.63,-0.21 -1.78,-0.84 -2.41,-1.47 -0.63,-0.63 -1,-1.73 -0.68,-2.47 0.32,-0.74 1.63,-1.15 2.68,-1.57 1.05,-0.42 2.26,-0.52 2.83,-0.73 0.57,-0.21 0.84,-0.47 1.57,-0.47 0.73,0 0.94,0.63 1.36,0.73 0.42,0.1 3.2,0.05 3.67,-0.05 0.47,-0.1 2.52,-1.05 2.47,-1.78 -0.05,-0.73 -1.52,-0.1 -1.94,-0.52 -0.42,-0.42 -1.99,-2.47 -3.25,-2.52 -1.26,-0.05 -2.1,0.89 -3.04,0.89 -0.94,0 -1.42,-0.73 -2.05,-0.63 -0.63,0.1 -1.68,1.05 -2.31,1.68 -0.63,0.63 -1.1,1.21 -1.21,1.47 -0.11,0.26 0.47,1.42 -0.26,1.89 -0.73,0.47 -1.73,0.58 -2.1,0.63 -0.37,0.05 -1.68,-0.16 -1.94,0.68 -0.26,0.84 -0.16,1.78 0.21,2.36 0.37,0.58 0.52,1.15 -0.16,1.73 -0.68,0.58 -1.26,0.73 -1.68,-0.05 -0.42,-0.79 -0.16,-0.84 -0.47,-1.31 -0.31,-0.47 -1.21,-1.94 -1.57,-3.04 -0.36,-1.1 -0.63,-1.89 -1.26,-2.62 -0.63,-0.73 -1.63,-0.79 -2.31,-1.42 -0.68,-0.63 -1.31,-1.52 -1.31,-1.52 0,0 -0.52,0.94 0.16,2.57 0.68,1.63 2.36,2.89 2.47,3.52 0.11,0.63 -0.16,1.68 -0.63,1.68 -0.47,0 -1.05,-0.52 -1.73,-1.31 -0.68,-0.79 -1.89,-1.63 -2.52,-2.2 -0.63,-0.57 -1.36,-3.04 -1.73,-3.1 -0.37,-0.06 -1.15,1.42 -2.31,1.78 -1.16,0.36 -2.15,0.42 -2.15,0.42 0,0 -0.73,1.68 -1.73,2.2 -1,0.52 -1.52,0.84 -1.99,1.52 -0.47,0.68 -1.1,1.94 -1.57,2.41 -0.47,0.47 -1.78,0.84 -2.2,1 -0.42,0.16 -1.31,0.42 -1.57,0.42 -0.26,0 -1.68,-0.94 -1.89,-1.63 -0.21,-0.68 -0.63,-1.1 -0.63,-1.57 0,-0.47 1.21,-2.36 1.52,-3.25 0.31,-0.89 0.52,-1.84 1.36,-2.52 0.84,-0.68 1.15,0 2.41,0.05 1.26,0.05 2.78,-0.1 2.78,-0.1 0,0 0.16,-0.37 0.31,-0.73 0.15,-0.36 0.52,-0.31 0.42,-0.58 -0.1,-0.27 -1.31,-1.05 -1.42,-1.63 -0.1,-0.58 0.1,-0.79 0.52,-1.05 0.42,-0.26 0.94,-0.73 0.94,-0.73 0,0 0.31,-0.42 1,-0.68 0.69,-0.26 1.31,0.42 1.78,0.26 0.47,-0.16 1.78,-0.84 2.31,-1.47 0.53,-0.63 1.15,-1.31 1.68,-1.63 0.53,-0.32 1.84,-0.42 2.31,-0.73 0.47,-0.31 0.47,-1.05 0.89,-1.21 0.42,-0.16 1.05,-0.42 1.78,0.1 0.73,0.52 1.05,1.47 1.84,1.57 0.79,0.1 1.52,-0.21 1.84,-0.37 0.32,-0.16 1,-1.15 1.89,-1.68 0.89,-0.52 1.47,-0.84 1.94,-1.36 0.47,-0.52 0.73,-1 0.73,-1 0,0 1.36,-0.16 1.99,-0.31 0.63,-0.15 2.31,-0.26 1.99,-1.26 -0.32,-1 -1.52,-0.42 -2.41,-0.26 -0.89,0.16 -1.68,0.63 -1.89,0.31 -0.21,-0.32 0.73,-1.42 0.94,-1.78 0.21,-0.3599997 0.73,-0.9999997 0.05,-1.4199997 -0.68,-0.42 -1.42,0.73 -1.84,1.26 -0.42,0.5299997 -1.15,1.4199997 -1.15,1.4199997 0,0 0.16,0.79 0.16,1.26 0,0.47 -0.79,1.1 -1.47,1.73 -0.68,0.63 -1.26,1.52 -2.1,1.47 -0.84,-0.05 -1.21,-1.26 -1.26,-1.42 -0.05,-0.16 0,-1 -0.26,-1.05 -0.26,-0.05 -0.84,1.1 -1.84,0.94 -1,-0.16 -1.15,-1.36 -0.58,-2.52 0.57,-1.16 1.68,-1.47 2.52,-1.8899997 0.84,-0.42 1.57,-0.68 2.05,-1.05 0.48,-0.37 0.63,-0.68 0.94,-1.05 0.31,-0.37 2.83,-2.2 4.35,-2.89 1.52,-0.69 2.52,-1.15 3.25,-1.26 0.73,-0.1 1.63,-0.16 2.31,0.31 0.68,0.47 2.52,1.57 2.99,2.05 0.47,0.48 0.84,0.89 1.84,0.68 1,-0.21 3.67,-1.21 3.99,-1.52 0.32,-0.31 -0.31,-1.15 -0.63,-1.21 -0.32,-0.06 -1.43,0.22 -1.92,-0.31 z"
     fill="#7add8a"
     id="path23"
     style="fill:#0000ff" />
  <radialGradient
     id="IconifyId17ecdb2904d178eab8951"
     cx="64.332001"
     cy="57.234001"
     r="21.385"
     gradientTransform="matrix(0.3201,-0.9474,3.2189,1.0875,-143.61287,51.451244)"
     gradientUnits="userSpaceOnUse">
    <stop
       offset=".118"
       stop-color="#e3dda6"
       id="stop25" />
    <stop
       offset=".907"
       stop-color="#e3dda6"
       stop-opacity=".083"
       id="stop27" />
    <stop
       offset=".978"
       stop-color="#e3dda6"
       stop-opacity="0"
       id="stop29" />
  </radialGradient>
  <path
     d="m 38.110132,77.561244 c 0.1,-0.79 -0.21,-2.1 -1.42,-2.52 -1.21,-0.42 -2.15,0.1 -2.83,-0.26 -0.68,-0.36 -1.57,-2.26 -3.1,-2.36 -1.53,-0.1 -3.46,1.99 -5.14,1.94 -1.68,-0.05 -1.73,-1.21 -2.94,-1.57 -1.21,-0.36 -1.63,0.89 -2.62,0.68 -1,-0.21 -2.41,-1.63 -3.2,-2.89 -0.79,-1.26 -1.73,-1.99 -2.2,-2.73 -0.47,-0.74 -0.63,-1.26 -0.63,-1.26 0,0 -1.68,-0.05 -2.15,-2.68 -0.47,-2.63 -0.1,-3.88 0.31,-5.25 0.42,-1.36 1.57,-5.04 1.68,-6.3 0.11,-1.26 -0.16,-2.15 0.1,-2.83 0.26,-0.68 1.57,-1.73 2.15,-2.73 0.58,-1 1.1,-2.05 1.63,-2.78 0.53,-0.73 1.47,-0.1 2.73,-1.73 1.26,-1.63 1.05,-1.89 1.05,-1.89 0,0 0.31,-1.73 1.26,-2.89 0.95,-1.16 1.94,-1.73 2.62,-1.84 0.68,-0.11 1.63,0.21 2.31,0.21 0.68,0 1.52,0.16 2.1,0.05 0.58,-0.11 2.31,-1.47 3.57,-1.78 1.26,-0.31 2.36,-0.16 3.36,-0.37 1,-0.21 2.73,-0.42 3.83,0.37 1.1,0.79 1.1,1.36 1,1.73 -0.1,0.37 -0.79,1.26 -0.52,1.63 0.27,0.37 1.1,0.68 1.57,0.84 0.47,0.16 1.21,0.21 1.47,0.37 0.26,0.16 0.89,0.89 1.94,1.42 1.05,0.53 2.73,1.42 3.31,1.1 0.58,-0.32 0.52,-1.73 1.52,-2.05 1,-0.31 2.41,0.05 3.94,0.31 1.53,0.26 7.82,1.73 8.5,1.52 0.68,-0.21 0.47,-0.79 1.26,-1 0.79,-0.21 1.57,-0.16 1.89,-0.73 0.32,-0.57 0.52,-3.36 0.47,-4.3 -0.05,-0.94 -0.05,-2.1 -0.47,-2.31 -0.42,-0.21 -1.57,1.05 -2.62,1.26 -1.05,0.21 -1.42,-0.16 -1.89,-0.1 -0.47,0.06 -0.89,0.79 -1.52,0.58 -0.63,-0.21 -1.78,-0.84 -2.41,-1.47 -0.63,-0.63 -1,-1.73 -0.68,-2.47 0.32,-0.74 1.63,-1.15 2.68,-1.57 1.05,-0.42 2.26,-0.52 2.83,-0.73 0.57,-0.21 0.84,-0.47 1.57,-0.47 0.73,0 0.94,0.63 1.36,0.73 0.42,0.1 3.2,0.05 3.67,-0.05 0.47,-0.1 2.52,-1.05 2.47,-1.78 -0.05,-0.73 -1.52,-0.1 -1.94,-0.52 -0.42,-0.42 -2,-2.38 -3.25,-2.52 -2.91,-0.33 -6.18,-3.87 -6.25,-8.92 -0.07,-5.0499997 2.54,-7.6999997 4.2,-8.0799997 0.99,-0.23 3.67,-1.21 3.99,-1.52 0.32,-0.31 -0.31,-1.15 -0.63,-1.21 -0.32,-0.06 -1.42,0.22 -1.92,-0.31 -0.38,-0.41 -0.11,-0.91 0.53,-1.23 0.63,-0.32 2.19,-1.39 2.19,-1.39 0,0 12.49,-0.18 27.03,10.1499997 14.009998,9.97 18.639998,22.65 18.639998,22.65 0,0 0.41,1.6 0.12,2.13 -0.29,0.54 0.04,3.32 -0.78,7.96 -0.82,4.64 -1.18,6.06 -1.13,8.16 0.05,2.1 0.79,6.14 -0.79,6.45 -1.58,0.31 -1.99,-2.15 -2.83,-3.99 -0.84,-1.84 -2.31,-4.14 -2.68,-4.93 -0.37,-0.79 -0.63,-1.84 -0.63,-1.84 0,0 -0.94,0.26 -1.68,-0.21 -0.73,-0.47 -4.459998,-4.77 -4.929998,-5.14 -0.47,-0.37 -1.68,-0.16 -2.68,0.16 -1,0.32 -1.36,0.94 -3.62,0.73 -2.26,-0.21 -1.42,-1.05 -2.62,-1.89 -1.2,-0.84 -2.26,1.1 -3.41,1.1 -1.15,0 -1.89,-0.58 -2.68,-1.36 -0.79,-0.78 -1.73,-1.68 -2.2,-1.84 -0.47,-0.16 -1.63,0.16 -1.15,1.31 0.48,1.15 1.36,1.26 2.15,2.05 0.79,0.79 0.68,1.26 1.1,1.89 0.42,0.63 2.52,2.05 2.99,1.94 0.47,-0.1 1.36,-0.63 1.73,-1.21 0.37,-0.58 0.26,-1.21 0.94,-1.31 0.68,-0.1 1.26,0.89 2.2,1.63 0.94,0.74 1.99,0.73 2.26,2.05 0.26,1.31 -0.79,5.35 -1.73,6.4 -0.94,1.05 -1.89,1.15 -1.89,1.15 l -2.1,1.78 c 0,0 0,0.94 -1.73,1.94 -1.73,1 -2.15,0.94 -3.31,1.52 -1.16,0.58 -1.78,1.26 -2.68,1.05 -0.9,-0.21 -1.52,-1.57 -1.94,-2.94 -0.42,-1.36 -1.36,-2.52 -2.05,-3.2 -0.69,-0.68 -1.21,-0.73 -1.89,-1.57 -0.68,-0.84 -2.1,-2.68 -2.2,-3.04 -0.1,-0.36 -0.1,-0.84 -0.47,-1.36 -0.37,-0.52 -1.1,-0.89 -1.52,-1.21 -0.42,-0.31 -0.73,-0.73 -0.84,-1.42 -0.11,-0.69 -1.15,-1.52 -1.68,-2.15 -0.53,-0.63 -1.15,-1.78 -1.73,-1.36 -0.58,0.42 0.1,1.31 0.79,2.47 0.69,1.16 1,1.94 1.15,2.73 0.16,0.79 -0.05,1.31 0.52,1.68 0.57,0.37 1.21,-0.05 1.89,1.57 0.68,1.62 0.42,3.15 1.15,3.78 0.73,0.63 0.89,0.26 1.52,1.05 0.63,0.79 0.52,1.94 1.26,2.47 0.74,0.53 2.94,1.47 3.78,2.78 0.84,1.31 0.42,1.89 1.21,2.36 0.79,0.47 2.31,0.05 3.88,-0.47 1.57,-0.52 3.73,-2.2 4.62,-1.94 0.89,0.26 0.68,3.57 -0.21,6.09 -0.89,2.52 -1.57,3.31 -2.2,4.09 -0.63,0.78 -1.52,2.41 -3.36,3.99 -1.84,1.58 -4.3,4.04 -4.93,7.24 0,0 -9.24,6.9 -18.84,5.68 -10.11,-1.31 -20.61,-10.75 -20.55,-11.15 z"
     fill="url(#IconifyId17ecdb2904d178eab8951)"
     id="path32"
     style="fill:url(#IconifyId17ecdb2904d178eab8951)" />
  <radialGradient
     id="IconifyId17ecdb2904d178eab8952"
     cx="87.947998"
     cy="42.632"
     r="18.618999"
     gradientTransform="matrix(-0.7604,-0.6495,1.1303,-1.3232,106.636,156.165)"
     gradientUnits="userSpaceOnUse">
    <stop
       offset=".118"
       stop-color="#e3dda6"
       id="stop34" />
    <stop
       offset=".907"
       stop-color="#e3dda6"
       stop-opacity=".083"
       id="stop36" />
    <stop
       offset=".978"
       stop-color="#e3dda6"
       stop-opacity="0"
       id="stop38" />
  </radialGradient>
  <path
     d="m 38.110132,77.561244 c 0.1,-0.79 -0.21,-2.1 -1.42,-2.52 -1.21,-0.42 -2.15,0.1 -2.83,-0.26 -0.68,-0.36 -1.57,-2.26 -3.1,-2.36 -1.53,-0.1 -3.46,1.99 -5.14,1.94 -1.68,-0.05 -1.73,-1.21 -2.94,-1.57 -1.21,-0.36 -1.63,0.89 -2.62,0.68 -1,-0.21 -2.41,-1.63 -3.2,-2.89 -0.79,-1.26 -1.73,-1.99 -2.2,-2.73 -0.47,-0.74 -0.63,-1.26 -0.63,-1.26 0,0 -1.68,-0.05 -2.15,-2.68 -0.47,-2.63 -0.1,-3.88 0.31,-5.25 0.42,-1.36 1.57,-5.04 1.68,-6.3 0.11,-1.26 -0.16,-2.15 0.1,-2.83 0.26,-0.68 1.57,-1.73 2.15,-2.73 0.58,-1 1.1,-2.05 1.63,-2.78 0.53,-0.73 1.47,-0.1 2.73,-1.73 1.26,-1.63 1.05,-1.89 1.05,-1.89 0,0 0.31,-1.73 1.26,-2.89 0.95,-1.16 1.94,-1.73 2.62,-1.84 0.68,-0.11 1.63,0.21 2.31,0.21 0.68,0 1.52,0.16 2.1,0.05 0.58,-0.11 2.31,-1.47 3.57,-1.78 1.26,-0.31 2.36,-0.16 3.36,-0.37 1,-0.21 2.73,-0.42 3.83,0.37 1.1,0.79 1.1,1.36 1,1.73 -0.1,0.37 -0.79,1.26 -0.52,1.63 0.27,0.37 1.1,0.68 1.57,0.84 0.47,0.16 1.21,0.21 1.47,0.37 0.26,0.16 0.89,0.89 1.94,1.42 1.05,0.53 2.73,1.42 3.31,1.1 0.58,-0.32 0.52,-1.73 1.52,-2.05 1,-0.31 2.41,0.05 3.94,0.31 1.53,0.26 7.82,1.73 8.5,1.52 0.68,-0.21 0.47,-0.79 1.26,-1 0.79,-0.21 1.57,-0.16 1.89,-0.73 0.32,-0.57 0.52,-3.36 0.47,-4.3 -0.05,-0.94 -0.05,-2.1 -0.47,-2.31 -0.42,-0.21 -1.57,1.05 -2.62,1.26 -1.05,0.21 -1.42,-0.16 -1.89,-0.1 -0.47,0.06 -0.89,0.79 -1.52,0.58 -0.63,-0.21 -1.78,-0.84 -2.41,-1.47 -0.63,-0.63 -1,-1.73 -0.68,-2.47 0.32,-0.74 1.63,-1.15 2.68,-1.57 1.05,-0.42 2.26,-0.52 2.83,-0.73 0.57,-0.21 0.84,-0.47 1.57,-0.47 0.73,0 0.94,0.63 1.36,0.73 0.42,0.1 3.2,0.05 3.67,-0.05 0.47,-0.1 2.52,-1.05 2.47,-1.78 -0.05,-0.73 -1.52,-0.1 -1.94,-0.52 -0.42,-0.42 -2,-2.38 -3.25,-2.52 -2.91,-0.33 -6.18,-3.87 -6.25,-8.92 -0.07,-5.0499997 2.54,-7.6999997 4.2,-8.0799997 0.99,-0.23 3.67,-1.21 3.99,-1.52 0.32,-0.31 -0.31,-1.15 -0.63,-1.21 -0.32,-0.06 -1.42,0.22 -1.92,-0.31 -0.38,-0.41 -0.11,-0.91 0.53,-1.23 0.63,-0.32 2.19,-1.39 2.19,-1.39 0,0 12.49,-0.18 27.03,10.1499997 14.009998,9.97 18.639998,22.65 18.639998,22.65 0,0 0.41,1.6 0.12,2.13 -0.29,0.54 0.04,3.32 -0.78,7.96 -0.82,4.64 -1.18,6.06 -1.13,8.16 0.05,2.1 0.79,6.14 -0.79,6.45 -1.58,0.31 -1.99,-2.15 -2.83,-3.99 -0.84,-1.84 -2.31,-4.14 -2.68,-4.93 -0.37,-0.79 -0.63,-1.84 -0.63,-1.84 0,0 -0.94,0.26 -1.68,-0.21 -0.73,-0.47 -4.459998,-4.77 -4.929998,-5.14 -0.47,-0.37 -1.68,-0.16 -2.68,0.16 -1,0.32 -1.36,0.94 -3.62,0.73 -2.26,-0.21 -1.42,-1.05 -2.62,-1.89 -1.2,-0.84 -2.26,1.1 -3.41,1.1 -1.15,0 -1.89,-0.58 -2.68,-1.36 -0.79,-0.78 -1.73,-1.68 -2.2,-1.84 -0.47,-0.16 -1.63,0.16 -1.15,1.31 0.48,1.15 1.36,1.26 2.15,2.05 0.79,0.79 0.68,1.26 1.1,1.89 0.42,0.63 2.52,2.05 2.99,1.94 0.47,-0.1 1.36,-0.63 1.73,-1.21 0.37,-0.58 0.26,-1.21 0.94,-1.31 0.68,-0.1 1.26,0.89 2.2,1.63 0.94,0.74 1.99,0.73 2.26,2.05 0.26,1.31 -0.79,5.35 -1.73,6.4 -0.94,1.05 -1.89,1.15 -1.89,1.15 l -2.1,1.78 c 0,0 0,0.94 -1.73,1.94 -1.73,1 -2.15,0.94 -3.31,1.52 -1.16,0.58 -1.78,1.26 -2.68,1.05 -0.9,-0.21 -1.52,-1.57 -1.94,-2.94 -0.42,-1.36 -1.36,-2.52 -2.05,-3.2 -0.69,-0.68 -1.21,-0.73 -1.89,-1.57 -0.68,-0.84 -2.1,-2.68 -2.2,-3.04 -0.1,-0.36 -0.1,-0.84 -0.47,-1.36 -0.37,-0.52 -1.1,-0.89 -1.52,-1.21 -0.42,-0.31 -0.73,-0.73 -0.84,-1.42 -0.11,-0.69 -1.15,-1.52 -1.68,-2.15 -0.53,-0.63 -1.15,-1.78 -1.73,-1.36 -0.58,0.42 0.1,1.31 0.79,2.47 0.69,1.16 1,1.94 1.15,2.73 0.16,0.79 -0.05,1.31 0.52,1.68 0.57,0.37 1.21,-0.05 1.89,1.57 0.68,1.62 0.42,3.15 1.15,3.78 0.73,0.63 0.89,0.26 1.52,1.05 0.63,0.79 0.52,1.94 1.26,2.47 0.74,0.53 2.94,1.47 3.78,2.78 0.84,1.31 0.42,1.89 1.21,2.36 0.79,0.47 2.31,0.05 3.88,-0.47 1.57,-0.52 3.73,-2.2 4.62,-1.94 0.89,0.26 0.68,3.57 -0.21,6.09 -0.89,2.52 -1.57,3.31 -2.2,4.09 -0.63,0.78 -1.52,2.41 -3.36,3.99 -1.84,1.58 -4.3,4.04 -4.93,7.24 0,0 -9.24,6.9 -18.84,5.68 -10.11,-1.31 -20.61,-10.75 -20.55,-11.15 z"
     fill="url(#IconifyId17ecdb2904d178eab8952)"
     id="path41"
     style="fill:#0000ff" />
  <radialGradient
     id="IconifyId17ecdb2904d178eab8953"
     cx="61.287998"
     cy="118.76"
     r="17.892"
     gradientTransform="matrix(0.2128,-0.9771,1.9056,0.4151,-178.069,129.348)"
     gradientUnits="userSpaceOnUse">
    <stop
       offset="0"
       stop-color="#e3dda6"
       id="stop43" />
    <stop
       offset=".818"
       stop-color="#e3dda6"
       stop-opacity="0"
       id="stop45" />
  </radialGradient>
  <path
     d="m 56.260132,112.08124 c -1.67,-0.52 -2.73,-1.63 -3.2,-2.15 -0.47,-0.52 -0.94,-1.1 -1.68,-1.52 -0.73,-0.42 -1.57,-1.31 -2.15,-2.1 -0.58,-0.79 -2.15,-2.89 -3.67,-4.56 -1.52,-1.67 -2.31,-2.469996 -2.41,-4.299996 -0.1,-1.83 1.57,-3.73 1.57,-3.73 0,0 -0.47,-3.25 -1.84,-5.67 -1.37,-2.42 -3.2,-2.83 -4.3,-5.3 0,0 9.75,-0.92 17.91,0.92 8.16,1.84 21.02,9.26 21.02,9.26 -0.1,1.36 0.05,2.2 -0.68,2.94 -0.73,0.74 -3.73,3.36 -4.25,4.299996 -0.52,0.94 -0.16,2.1 -0.52,3.41 -0.36,1.31 -2.68,3.41 -3.46,3.83 -0.78,0.42 -0.58,1.21 -2.41,2.78 -1.83,1.57 -2.42,2.07 -3.2,2.2 -0.62,0.11 -4.98,0.24 -6.73,-0.31 z"
     fill="url(#IconifyId17ecdb2904d178eab8953)"
     id="path48"
     style="fill:#0000ff" />
  <path
     d="m 76.410132,20.971244 c -0.78,-0.08 -2.09,1.49 -2.13,2.2 -0.04,0.71 0.19,1.68 0.49,1.94 0.3,0.26 2.09,1.16 2.5,1.75 0.41,0.59 0.6,2.61 1.38,3.58 0.78,0.97 1.72,1.98 3.77,1.94 2.05,-0.04 1.75,-1.11 1.75,-1.57 0,-0.78 -2.43,-3.43 -3.4,-4.37 -0.97,-0.93 -2.61,-1.68 -2.91,-2.39 -0.3,-0.71 0.26,-1.23 0.04,-1.79 -0.22,-0.55 -0.74,-1.22 -1.49,-1.29 z"
     fill="#4b9ced"
     id="path50" />
  <path
     d="m 69.340132,79.371244 c -0.3,-0.39 -1.65,-0.45 -2.1,-0.16 -0.45,0.29 -1.13,2.42 -0.94,2.78 0.19,0.36 1.49,0.26 1.94,0.1 0.45,-0.16 1.42,-2.3 1.1,-2.72 z"
     fill="#4186f1"
     id="path52" />
</svg>
